<svg width="24" height="24" viewBox="0 0 24 24" fill="none" xmlns="http://www.w3.org/2000/svg">
<g clip-path="url(#clip0_247_2766)">
<path fill-rule="evenodd" clip-rule="evenodd" d="M12 24C5.37225 24 0 18.6277 0 12C0 5.37225 5.37225 0 12 0C18.6277 0 24 5.37225 24 12C24 18.6277 18.6277 24 12 24ZM17.9955 12.1642L12.3735 3L6.75 12.165L12.3735 15.4297L17.9955 12.1642ZM18 13.212L12.3735 16.4752L6.75 13.2128L12.3735 20.9963L18 13.212Z" fill="#3A5DD7"/>
<path d="M12.3735 3V9.6525L17.9963 12.165L12.3735 3ZM12.3735 16.476V20.9963L18 13.212L12.3735 16.476Z" fill="white" fill-opacity="0.298"/>
<path d="M12.3735 15.4296L17.9963 12.1648L12.3735 9.65381V15.4296Z" fill="white" fill-opacity="0.801"/>
<path d="M6.75 12.1648L12.3735 15.4296V9.65381L6.75 12.1648Z" fill="white" fill-opacity="0.298"/>
</g>
<defs>
<clipPath id="clip0_247_2766">
<rect width="24" height="24" fill="white"/>
</clipPath>
</defs>
</svg>
