<svg width="56" height="56" viewBox="0 0 56 56" fill="none" xmlns="http://www.w3.org/2000/svg">
<rect width="56" height="56" rx="28" fill="#FFF5F4"/>
<rect x="6.33337" y="6.3335" width="43.3333" height="43.3333" rx="21.6667" fill="#FFF5F4"/>
<path d="M27.953 18C22.465 18 18 22.486 18 28C18 33.514 22.486 38 28 38C33.514 38 38 33.514 38 28C38 22.486 33.493 18 27.953 18ZM28 36C23.589 36 20 32.411 20 28C20 23.589 23.567 20 27.953 20C32.391 20 36 23.589 36 28C36 32.411 32.411 36 28 36Z" fill="#E03939"/>
<path d="M27 23H29V30H27V23ZM27 31H29V33H27V31Z" fill="#E03939"/>
<rect x="6.33337" y="6.3335" width="43.3333" height="43.3333" rx="21.6667" stroke="#F7D5D2" stroke-width="6"/>
</svg>
