<svg width="20" height="20" viewBox="0 0 20 20" fill="none" xmlns="http://www.w3.org/2000/svg">
<path d="M17.5 2.5H4.16665C3.94563 2.5 3.73367 2.5878 3.57739 2.74408C3.42111 2.90036 3.33331 3.11232 3.33331 3.33333V5.49167C3.33331 5.9275 3.51081 6.35583 3.81915 6.66417L8.33331 11.1783V17.5C8.33348 17.642 8.36988 17.7816 8.43906 17.9055C8.50825 18.0295 8.60794 18.1338 8.72868 18.2085C8.84943 18.2832 8.98724 18.3258 9.12907 18.3323C9.27089 18.3389 9.41204 18.3091 9.53915 18.2458L12.8725 16.5792C13.155 16.4375 13.3333 16.1492 13.3333 15.8333V11.1783L17.8475 6.66417C18.1558 6.35583 18.3333 5.9275 18.3333 5.49167V3.33333C18.3333 3.11232 18.2455 2.90036 18.0892 2.74408C17.933 2.5878 17.721 2.5 17.5 2.5V2.5ZM11.9108 10.2442C11.8333 10.3214 11.7718 10.4132 11.7299 10.5144C11.688 10.6155 11.6665 10.7239 11.6666 10.8333V15.3183L9.99998 16.1517V10.8333C10.0001 10.7239 9.97865 10.6155 9.93674 10.5144C9.89484 10.4132 9.83335 10.3214 9.75581 10.2442L4.99998 5.49167V4.16667H16.6675L16.6691 5.48583L11.9108 10.2442V10.2442Z" fill="#3A5DD7"/>
</svg>
