<svg width="20" height="20" viewBox="0 0 20 20" fill="none" xmlns="http://www.w3.org/2000/svg">
<path fill-rule="evenodd" clip-rule="evenodd" d="M10 20C15.5228 20 20 15.5228 20 10C20 4.47715 15.5228 0 10 0C4.47715 0 0 4.47715 0 10C0 15.5228 4.47715 20 10 20ZM4 14.5V13.4992C4.96797 14.1812 6.7375 14.5 8.5 14.5C10.2625 14.5 12.032 14.1812 13 13.4992V14.5C13 15.3273 10.9844 16 8.5 16C6.01562 16 4 15.3273 4 14.5ZM16 5.5C16 6.32734 13.9844 7 11.5 7C9.01562 7 7 6.32734 7 5.5C7 4.67266 9.01562 4 11.5 4C13.9844 4 16 4.67266 16 5.5ZM4 12.25V11.0406C4.96797 11.8375 6.73984 12.25 8.5 12.25C10.2602 12.25 12.032 11.8375 13 11.0406V12.25C13 13.0773 10.9844 13.75 8.5 13.75C6.01562 13.75 4 13.0773 4 12.25ZM16 10C16 10.5555 15.093 11.0383 13.75 11.2984V9.80781C14.657 9.64609 15.4563 9.38359 16 8.99922V10ZM4 9.625C4 8.58906 6.01562 7.75 8.5 7.75C10.9844 7.75 13 8.58906 13 9.625C13 10.6609 10.9844 11.5 8.5 11.5C6.01562 11.5 4 10.6609 4 9.625ZM16 7.75C16 8.31953 15.0461 8.81641 13.6398 9.06953C13.4336 8.51406 12.925 8.06406 12.2336 7.72891C13.7383 7.65391 15.168 7.3375 16 6.74922V7.75Z" fill="#3A5DD7"/>
</svg>
