<svg width="56" height="56" viewBox="0 0 56 56" fill="none" xmlns="http://www.w3.org/2000/svg">
<rect width="56" height="56" rx="28" fill="#F3FFFA"/>
<rect x="6.33337" y="6.3335" width="43.3333" height="43.3333" rx="21.6667" fill="#F3FFFA"/>
<path d="M28 18C22.486 18 18 22.486 18 28C18 33.514 22.486 38 28 38C33.514 38 38 33.514 38 28C38 22.486 33.514 18 28 18ZM28 36C23.589 36 20 32.411 20 28C20 23.589 23.589 20 28 20C32.411 20 36 23.589 36 28C36 32.411 32.411 36 28 36Z" fill="#12B76A"/>
<path d="M25.999 29.587L23.7 27.292L22.288 28.708L26.001 32.413L32.707 25.707L31.293 24.293L25.999 29.587Z" fill="#12B76A"/>
<rect x="6.33337" y="6.3335" width="43.3333" height="43.3333" rx="21.6667" stroke="#CDEADD" stroke-width="6"/>
</svg>
