<svg width="24" height="24" viewBox="0 0 24 24" fill="none" xmlns="http://www.w3.org/2000/svg">
<path d="M12 3C10.2526 3.00332 8.54393 3.51471 7.08203 4.47189C5.62014 5.42906 4.46813 6.7907 3.76635 8.39096C3.06456 9.99122 2.84329 11.761 3.12947 13.4848C3.41565 15.2086 4.19694 16.812 5.37817 18.0996V18.0996C6.22182 19.0141 7.24575 19.7439 8.38542 20.2431C9.52509 20.7423 10.7558 21 12 21C13.2442 21 14.4749 20.7423 15.6146 20.2431C16.7543 19.7439 17.7782 19.0141 18.6219 18.0996V18.0996C19.8031 16.812 20.5844 15.2086 20.8706 13.4848C21.1567 11.761 20.9355 9.99122 20.2337 8.39096C19.5319 6.7907 18.3799 5.42906 16.918 4.47189C15.4561 3.51471 13.7474 3.00332 12 3V3ZM12 19.2168C10.1337 19.2139 8.34125 18.4873 6.99984 17.1897C7.4071 16.1982 8.09991 15.3502 8.99023 14.7534C9.88055 14.1567 10.9282 13.838 12 13.838C13.0718 13.838 14.1195 14.1567 15.0098 14.7534C15.9001 15.3502 16.5929 16.1982 17.0002 17.1897C15.6588 18.4873 13.8663 19.2139 12 19.2168ZM10.1981 10.2074C10.1981 9.85107 10.3038 9.5027 10.5018 9.20639C10.6998 8.91007 10.9812 8.67912 11.3105 8.54275C11.6397 8.40637 12.002 8.37068 12.3515 8.44021C12.7011 8.50973 13.0221 8.68135 13.2741 8.93334C13.5261 9.18534 13.6977 9.5064 13.7673 9.85592C13.8368 10.2055 13.8011 10.5677 13.6647 10.897C13.5283 11.2262 13.2974 11.5077 13.0011 11.7056C12.7048 11.9036 12.3564 12.0093 12 12.0093C11.5221 12.0093 11.0638 11.8195 10.7259 11.4816C10.388 11.1436 10.1981 10.6853 10.1981 10.2074ZM18.2254 15.613C17.4205 14.2362 16.1816 13.1652 14.7028 12.5679C15.1615 12.0477 15.4604 11.4063 15.5636 10.7205C15.6668 10.0347 15.5699 9.33365 15.2846 8.70154C14.9992 8.06943 14.5376 7.53309 13.9549 7.15687C13.3723 6.78064 12.6935 6.58052 12 6.58052C11.3065 6.58052 10.6277 6.78064 10.0451 7.15687C9.46246 7.53309 9.00078 8.06943 8.71544 8.70154C8.4301 9.33365 8.33321 10.0347 8.4364 10.7205C8.5396 11.4063 8.83849 12.0477 9.29722 12.5679C7.81843 13.1652 6.57953 14.2362 5.77458 15.613C5.13306 14.5203 4.79411 13.2764 4.79256 12.0093C4.79256 10.0978 5.55192 8.26453 6.90358 6.91288C8.25523 5.56122 10.0885 4.80186 12 4.80186C13.9115 4.80186 15.7448 5.56122 17.0964 6.91288C18.4481 8.26453 19.2075 10.0978 19.2075 12.0093C19.2059 13.2764 18.867 14.5203 18.2254 15.613V15.613Z" fill="white"/>
</svg>
