<svg width="32" height="32" viewBox="0 0 32 32" fill="none" xmlns="http://www.w3.org/2000/svg">
<path d="M26.6666 5.33325H7.99998C6.52931 5.33325 5.33331 6.52925 5.33331 7.99992V14.6666H7.99998V10.6666L16.5333 17.0666C16.7642 17.2395 17.0449 17.3329 17.3333 17.3329C17.6218 17.3329 17.9024 17.2395 18.1333 17.0666L26.6666 10.6666V22.6666H16V25.3333H26.6666C28.1373 25.3333 29.3333 24.1373 29.3333 22.6666V7.99992C29.3333 6.52925 28.1373 5.33325 26.6666 5.33325ZM17.3333 14.3333L8.88798 7.99992H25.7786L17.3333 14.3333Z" fill="#3A5DD7"/>
<path d="M2.66669 16H12V18.6667H2.66669V16ZM5.33335 20H13.3334V22.6667H5.33335V20ZM9.33335 24H14.6667V26.6667H9.33335V24Z" fill="#3A5DD7"/>
</svg>
