<svg width="21" height="21" viewBox="0 0 21 21" fill="none" xmlns="http://www.w3.org/2000/svg">
<g id="Icon Left">
<path id="Vector" d="M17.0858 7.65499C17.0463 7.56455 16.991 7.48186 16.9225 7.41082L11.9225 2.41082C11.8514 2.34231 11.7688 2.287 11.6783 2.24749C11.6533 2.23582 11.6266 2.22916 11.6 2.21999C11.5303 2.19626 11.4577 2.18197 11.3841 2.17749C11.3666 2.17582 11.3508 2.16666 11.3333 2.16666H5.49998C4.58081 2.16666 3.83331 2.91416 3.83331 3.83332V17.1667C3.83331 18.0858 4.58081 18.8333 5.49998 18.8333H15.5C16.4191 18.8333 17.1666 18.0858 17.1666 17.1667V7.99999C17.1666 7.98249 17.1575 7.96666 17.1558 7.94832C17.1517 7.87475 17.1374 7.80211 17.1133 7.73249C17.105 7.70582 17.0975 7.67999 17.0858 7.65499ZM14.3216 7.16666H12.1666V5.01166L14.3216 7.16666ZM5.49998 17.1667V3.83332H10.5V7.99999C10.5 8.221 10.5878 8.43297 10.7441 8.58925C10.9003 8.74553 11.1123 8.83332 11.3333 8.83332H15.5L15.5016 17.1667H5.49998Z" fill="#3A5DD7"/>
<path id="Vector_2" d="M7.16669 10.5H13.8334V12.1667H7.16669V10.5ZM7.16669 13.8333H13.8334V15.5H7.16669V13.8333ZM7.16669 7.16666H8.83335V8.83332H7.16669V7.16666Z" fill="#3A5DD7"/>
</g>
</svg>
