<svg width="20" height="21" viewBox="0 0 20 21" fill="none" xmlns="http://www.w3.org/2000/svg">
<g id="ic-right">
<path id="Vector" d="M10.0001 2.16675C5.40508 2.16675 1.66675 5.90508 1.66675 10.5001C1.66675 15.0951 5.40508 18.8334 10.0001 18.8334C14.5951 18.8334 18.3334 15.0951 18.3334 10.5001C18.3334 5.90508 14.5951 2.16675 10.0001 2.16675ZM10.0001 17.1667C6.32425 17.1667 3.33341 14.1759 3.33341 10.5001C3.33341 6.82425 6.32425 3.83341 10.0001 3.83341C13.6759 3.83341 16.6667 6.82425 16.6667 10.5001C16.6667 14.1759 13.6759 17.1667 10.0001 17.1667Z" fill="#98A2B3"/>
<path id="Vector_2" d="M9.16675 9.66659H10.8334V14.6666H9.16675V9.66659ZM9.16675 6.33325H10.8334V7.99992H9.16675V6.33325Z" fill="#98A2B3"/>
</g>
</svg>
