<svg width="20" height="20" viewBox="0 0 20 20" fill="none" xmlns="http://www.w3.org/2000/svg">
<g clip-path="url(#clip0_120_3268)">
<path d="M17.5378 14.2819C13.6012 15.0316 9.96652 12.0221 9.96652 8.02418C9.96652 5.72367 11.1994 3.61668 13.1921 2.4827C14.2011 1.90848 13.9473 0.378828 12.8009 0.16707C12.1984 0.0560195 11.5872 9.80947e-05 10.9746 0C5.45375 0 0.974609 4.47445 0.974609 10C0.974609 15.5209 5.4491 20 10.9746 20C14.0579 20 16.8761 18.5967 18.7422 16.2975C19.4784 15.3905 18.6755 14.0652 17.5378 14.2819ZM10.9746 18.75C6.14211 18.75 2.22461 14.8325 2.22461 10C2.22461 5.1675 6.14211 1.25 10.9746 1.25C11.5209 1.25 12.0553 1.30055 12.5738 1.39629C10.2702 2.70723 8.71652 5.18414 8.71652 8.02418C8.71652 12.8135 13.0764 16.404 17.7716 15.5098C16.1673 17.4864 13.7187 18.75 10.9746 18.75Z" fill="white"/>
</g>
<defs>
<clipPath id="clip0_120_3268">
<rect width="20" height="20" fill="white"/>
</clipPath>
</defs>
</svg>
