<svg width="24" height="24" viewBox="0 0 24 24" fill="none" xmlns="http://www.w3.org/2000/svg">
<g id="phone-volume 1" clip-path="url(#clip0_75_2296)">
<path id="Vector" d="M13.6993 22.3385C6.76913 20.4816 2.66671 13.3609 4.52088 6.44111C4.60234 6.13706 4.88278 5.93302 5.19288 5.94388L8.17685 6.04844C8.33419 6.05395 8.48459 6.11457 8.60176 6.21971C8.71893 6.32486 8.79543 6.46784 8.81788 6.62366L9.30399 9.9975C9.32475 10.1416 9.2981 10.2886 9.22805 10.4162C9.15799 10.5439 9.04834 10.6453 8.91562 10.7052L6.91863 11.6065C7.3444 13.9886 8.61336 16.1521 10.4248 17.6793L12.2038 16.4005C12.322 16.3155 12.4647 16.2712 12.6103 16.2744C12.7559 16.2775 12.8965 16.3279 13.0109 16.418L15.6897 18.5259C15.8134 18.6233 15.899 18.761 15.9314 18.9151C15.9639 19.0691 15.9412 19.2297 15.8673 19.3687L14.4659 22.0051C14.3946 22.1392 14.28 22.2451 14.1408 22.3057C14.0016 22.3662 13.8459 22.3778 13.6993 22.3385ZM10.7296 5.49244C11.5215 5.93952 12.009 6.78392 12.0003 7.69319C11.9973 7.99676 11.7123 8.21845 11.4174 8.14609L11.1035 8.06908C10.898 8.01868 10.7534 7.83719 10.7456 7.62577C10.7379 7.42207 10.6806 7.22332 10.5786 7.04679C10.4767 6.87025 10.3333 6.72126 10.1607 6.61275C9.98148 6.50025 9.89663 6.28429 9.95573 6.08111L10.046 5.77071C10.1308 5.47921 10.4653 5.34317 10.7296 5.49244ZM12.0537 0.614947C15.4867 1.86264 17.5218 5.39121 16.8863 8.98522C16.839 9.25281 16.5746 9.42433 16.3108 9.35959L16.0061 9.28485C15.7664 9.22604 15.6125 8.99204 15.6547 8.74892C16.1727 5.76436 14.4839 2.84249 11.6426 1.79968C11.4109 1.71465 11.2852 1.46438 11.3541 1.22743L11.4417 0.926197C11.5176 0.665292 11.7983 0.522122 12.0537 0.614947ZM11.3763 3.03315C13.5006 3.89608 14.7687 6.08799 14.4534 8.36279C14.415 8.63937 14.1459 8.82225 13.8748 8.75566L13.569 8.68056C13.3377 8.62377 13.1832 8.40284 13.2144 8.16672C13.437 6.47917 12.4993 4.85514 10.9266 4.20418C10.7065 4.11311 10.5925 3.86885 10.6589 3.64015L10.7468 3.33779C10.8247 3.06967 11.1176 2.92806 11.3763 3.03315Z" fill="#3A5DD7"/>
</g>
<defs>
<clipPath id="clip0_75_2296">
<rect width="24" height="24" fill="white"/>
</clipPath>
</defs>
</svg>
