<svg width="24" height="24" viewBox="0 0 24 24" fill="none" xmlns="http://www.w3.org/2000/svg">
<path d="M12.006 2.00691C10.6927 2.002 9.39143 2.25775 8.17766 2.75932C6.96389 3.26089 5.86171 3.99833 4.93497 4.92891C1.03697 8.8279 1.03697 15.1719 4.93497 19.0709C6.81997 20.9559 9.33097 21.9939 12.006 21.9939C14.681 21.9939 17.193 20.9559 19.077 19.0709C22.975 15.1729 22.975 8.82891 19.077 4.92891C18.1502 3.99837 17.048 3.26097 15.8343 2.7594C14.6205 2.25783 13.3193 2.00206 12.006 2.00691V2.00691ZM17.663 17.6559C16.156 19.1629 14.146 19.9929 12.006 19.9929C9.86597 19.9929 7.85597 19.1629 6.34897 17.6559C3.23097 14.5369 3.23097 9.46191 6.34897 6.34291C7.85597 4.83591 9.86497 4.00691 12.006 4.00691C14.147 4.00691 16.156 4.83591 17.663 6.34291C20.781 9.46191 20.781 14.5369 17.663 17.6559Z" fill="white"/>
<path d="M11.4669 11.125L8.25293 14.339L9.66693 15.753L12.8809 12.539L15.0059 14.663V9H9.34293L11.4669 11.125Z" fill="white"/>
</svg>
