<svg width="20" height="20" viewBox="0 0 20 20" fill="none" xmlns="http://www.w3.org/2000/svg">
<path d="M13.6813 12.9749C13.525 12.8187 13.2744 12.8219 13.1247 12.9814L10.8462 15.364V4.6359L13.1247 7.01848C13.2776 7.17471 13.5283 7.17797 13.6813 7.02499L14.3192 6.38703C14.4722 6.23405 14.4722 5.98668 14.3192 5.8337L10.2766 1.78136C10.1237 1.62838 9.87629 1.62838 9.72331 1.78136L5.67748 5.8337C5.5245 5.98668 5.5245 6.23405 5.67748 6.38703L6.31544 7.02499C6.47167 7.18122 6.7223 7.17797 6.87202 7.01848L9.15045 4.6359V15.364L6.87202 12.9814C6.71904 12.8252 6.46842 12.8219 6.31544 12.9749L5.67748 13.6129C5.5245 13.7659 5.5245 14.0132 5.67748 14.1662L9.72331 18.2186C9.87629 18.3715 10.1237 18.3715 10.2766 18.2186L14.3225 14.1662C14.4754 14.0132 14.4754 13.7659 14.3225 13.6129L13.6813 12.9749Z" fill="#3A5DD7"/>
</svg>
