<svg width="20" height="21" viewBox="0 0 20 21" fill="none" xmlns="http://www.w3.org/2000/svg">
<path d="M8.33329 15.5001C9.81244 15.4998 11.249 15.0046 12.4141 14.0934L16.0775 17.7567L17.2558 16.5784L13.5925 12.9151C14.5041 11.7498 14.9996 10.3129 15 8.83341C15 5.15758 12.0091 2.16675 8.33329 2.16675C4.65746 2.16675 1.66663 5.15758 1.66663 8.83341C1.66663 12.5092 4.65746 15.5001 8.33329 15.5001ZM8.33329 3.83341C11.0908 3.83341 13.3333 6.07591 13.3333 8.83341C13.3333 11.5909 11.0908 13.8334 8.33329 13.8334C5.57579 13.8334 3.33329 11.5909 3.33329 8.83341C3.33329 6.07591 5.57579 3.83341 8.33329 3.83341Z" fill="#98A2B3"/>
</svg>
