<svg width="20" height="20" viewBox="0 0 20 20" fill="none" xmlns="http://www.w3.org/2000/svg">
<g clip-path="url(#clip0_120_3269)">
<path d="M10 15.3333C7.05448 15.3333 4.66667 12.9455 4.66667 10C4.66667 7.05448 7.05448 4.66667 10 4.66667C12.9455 4.66667 15.3333 7.05448 15.3333 10C15.3333 12.9455 12.9455 15.3333 10 15.3333ZM10 14C12.2091 14 14 12.2091 14 10C14 7.79086 12.2091 6 10 6C7.79086 6 6 7.79086 6 10C6 12.2091 7.79086 14 10 14ZM9.33333 18C9.33333 17.6318 9.63181 17.3333 10 17.3333C10.3682 17.3333 10.6667 17.6318 10.6667 18V19.3333C10.6667 19.7015 10.3682 20 10 20C9.63181 20 9.33333 19.7015 9.33333 19.3333V18ZM9.33333 0.666667C9.33333 0.298477 9.63181 0 10 0C10.3682 0 10.6667 0.298477 10.6667 0.666667V2C10.6667 2.36819 10.3682 2.66667 10 2.66667C9.63181 2.66667 9.33333 2.36819 9.33333 2V0.666667ZM5.42265 16.5949C5.60675 16.276 6.01447 16.1668 6.33333 16.3509C6.6522 16.5349 6.76145 16.9427 6.57735 17.2615L5.91068 18.4162C5.72659 18.7351 5.31886 18.8443 5 18.6603C4.68114 18.4762 4.57189 18.0684 4.75598 17.7496L5.42265 16.5949ZM14.0893 1.58376C14.2734 1.2649 14.6811 1.15565 15 1.33975C15.3189 1.52384 15.4281 1.93157 15.244 2.25043L14.5774 3.40513C14.3933 3.72399 13.9855 3.83324 13.6667 3.64915C13.3478 3.46505 13.2386 3.05733 13.4226 2.73846L14.0893 1.58376ZM2.73846 13.4226C3.05733 13.2386 3.46505 13.3478 3.64915 13.6667C3.83324 13.9855 3.72399 14.3933 3.40513 14.5774L2.25043 15.244C1.93157 15.4281 1.52384 15.3189 1.33975 15C1.15565 14.6811 1.2649 14.2734 1.58376 14.0893L2.73846 13.4226ZM17.7496 4.75598C18.0684 4.57189 18.4762 4.68114 18.6603 5C18.8443 5.31886 18.7351 5.72659 18.4162 5.91068L17.2615 6.57735C16.9427 6.76145 16.5349 6.6522 16.3509 6.33333C16.1668 6.01447 16.276 5.60675 16.5949 5.42265L17.7496 4.75598ZM2 9.33333C2.36819 9.33333 2.66667 9.63181 2.66667 10C2.66667 10.3682 2.36819 10.6667 2 10.6667H0.666667C0.298477 10.6667 0 10.3682 0 10C0 9.63181 0.298477 9.33333 0.666667 9.33333H2ZM19.3333 9.33333C19.7015 9.33333 20 9.63181 20 10C20 10.3682 19.7015 10.6667 19.3333 10.6667H18C17.6318 10.6667 17.3333 10.3682 17.3333 10C17.3333 9.63181 17.6318 9.33333 18 9.33333H19.3333ZM3.40513 5.42265C3.72399 5.60675 3.83324 6.01447 3.64915 6.33333C3.46505 6.6522 3.05733 6.76145 2.73846 6.57735L1.58376 5.91068C1.2649 5.72659 1.15565 5.31886 1.33975 5C1.52384 4.68114 1.93157 4.57189 2.25043 4.75598L3.40513 5.42265ZM18.4162 14.0893C18.7351 14.2734 18.8443 14.6811 18.6603 15C18.4762 15.3189 18.0684 15.4281 17.7496 15.244L16.5949 14.5774C16.276 14.3933 16.1668 13.9855 16.3509 13.6667C16.5349 13.3478 16.9427 13.2386 17.2615 13.4226L18.4162 14.0893ZM6.57735 2.73846C6.76145 3.05733 6.6522 3.46505 6.33333 3.64915C6.01447 3.83324 5.60675 3.72399 5.42265 3.40513L4.75598 2.25043C4.57189 1.93157 4.68114 1.52384 5 1.33975C5.31886 1.15565 5.72659 1.2649 5.91068 1.58376L6.57735 2.73846ZM15.244 17.7496C15.4281 18.0684 15.3189 18.4762 15 18.6603C14.6811 18.8443 14.2734 18.7351 14.0893 18.4162L13.4226 17.2615C13.2386 16.9427 13.3478 16.5349 13.6667 16.3509C13.9855 16.1668 14.3933 16.276 14.5774 16.5949L15.244 17.7496Z" fill="white"/>
</g>
<defs>
<clipPath id="clip0_120_3269">
<rect width="20" height="20" fill="white"/>
</clipPath>
</defs>
</svg>
