<svg width="64" height="64" viewBox="0 0 64 64" fill="none" xmlns="http://www.w3.org/2000/svg">
<g id="ic-cloud-upload">
<path id="Vector" d="M34.6666 50.6667V40H42.6666L32 26.6667L21.3333 40H29.3333V50.6667H34.6666Z" fill="#3A5DD7"/>
<path id="Vector_2" d="M18.6666 50.6666H24V45.3333H18.6666C14.256 45.3333 10.6666 41.744 10.6666 37.3333C10.6666 33.5893 13.864 29.984 17.7946 29.2933L19.344 29.0213L19.856 27.5333C21.7306 22.064 26.3866 18.6666 32 18.6666C39.352 18.6666 45.3333 24.648 45.3333 32V34.6666H48C50.9413 34.6666 53.3333 37.0586 53.3333 40C53.3333 42.9413 50.9413 45.3333 48 45.3333H40V50.6666H48C53.8826 50.6666 58.6666 45.8826 58.6666 40C58.6626 37.6096 57.8577 35.2895 56.3805 33.4102C54.9033 31.5309 52.8391 30.2007 50.5173 29.632C49.352 20.4533 41.4933 13.3333 32 13.3333C24.6506 13.3333 18.2666 17.6293 15.352 24.4C9.62398 26.112 5.33331 31.52 5.33331 37.3333C5.33331 44.6853 11.3146 50.6666 18.6666 50.6666Z" fill="#3A5DD7"/>
</g>
</svg>
