<svg width="256" height="256" viewBox="0 0 256 256" fill="none" xmlns="http://www.w3.org/2000/svg">
<g clip-path="url(#clip0_115_3246)">
<path d="M210.395 202.671C205.888 197.33 202.065 191.37 199.027 184.95C194.228 174.887 187.595 165.953 179.519 158.675C171.442 151.397 162.086 145.922 152.002 142.573C143.183 139.656 133.955 138.418 124.736 138.915C131.446 138.505 138.053 140.822 143.232 145.404C148.412 149.985 151.783 156.491 152.668 163.619C155.094 179.02 161.473 193.396 171.095 205.141C180.717 216.886 193.201 225.538 207.154 230.131C223.108 235.376 240.204 235.094 256 229.323C238.406 226.253 222.317 216.851 210.395 202.671Z" fill="#3A5DD7"/>
<path d="M96.5382 139.865C98.5884 149.501 102.195 158.681 107.196 166.992C103.544 160.957 102.139 153.678 103.257 146.59C104.374 139.501 107.935 133.118 113.235 128.7C124.491 118.739 132.942 105.63 137.646 90.8331C142.35 76.0366 143.123 60.1337 139.878 44.8954C136.174 27.4631 127.389 11.7417 114.789 0C121.062 17.9396 121.422 37.6333 115.81 55.8223C113.662 62.6892 110.676 69.2225 106.929 75.2532C101.177 84.7269 97.258 95.3388 95.4045 106.461C93.551 117.583 93.8006 128.99 96.1385 140.007L96.5382 139.865Z" fill="#3A5DD7"/>
<path d="M138.946 168.94C135.925 175.366 130.745 180.333 124.445 182.844C118.145 185.355 111.19 185.225 104.975 182.48C91.2802 176.989 76.4273 175.68 62.0771 178.701C47.7265 181.721 34.4438 188.951 23.7132 199.583C11.478 211.76 3.17413 227.78 0 245.333C11.3852 230.548 27.1435 220.358 44.6723 216.448C51.2576 215.006 57.9851 214.448 64.6993 214.785C75.231 215.369 85.765 213.69 95.6799 209.847C105.594 206.004 114.689 200.075 122.427 192.409C129.199 185.681 134.819 177.738 139.035 168.94H138.946Z" fill="#3A5DD7"/>
</g>
<defs>
<clipPath id="clip0_115_3246">
<rect width="256" height="256" fill="white"/>
</clipPath>
</defs>
</svg>
