<svg width="40" height="40" viewBox="0 0 40 40" fill="none" xmlns="http://www.w3.org/2000/svg">
<g id="logo-icon">
<g id="Vector">
<path d="M32.8743 31.6673C32.17 30.8328 31.5727 29.9016 31.098 28.8985C30.3482 27.3261 29.3117 25.9301 28.0498 24.793C26.7879 23.6558 25.326 22.8003 23.7502 22.277C22.3723 21.8212 20.9305 21.6277 19.4901 21.7054C20.5384 21.6413 21.5708 22.0034 22.38 22.7193C23.1894 23.4351 23.716 24.4517 23.8543 25.5654C24.2334 27.9718 25.2302 30.2181 26.7336 32.0532C28.237 33.8885 30.1877 35.2403 32.3677 35.9579C34.8607 36.7776 37.5319 36.7334 40 35.8317C37.2509 35.352 34.7371 33.883 32.8743 31.6673Z" fill="#3A5DD6"/>
<path d="M15.0841 21.8538C15.4044 23.3596 15.968 24.7939 16.7493 26.0925C16.1788 25.1496 15.9592 24.0122 16.1339 22.9047C16.3085 21.797 16.8648 20.7997 17.6929 20.1094C19.4518 18.5529 20.7722 16.5046 21.5073 14.1927C22.2422 11.8807 22.363 9.39589 21.856 7.0149C21.2772 4.29112 19.9045 1.83464 17.9358 0C18.9159 2.80307 18.9722 5.8802 18.0954 8.72223C17.7597 9.79518 17.2931 10.816 16.7077 11.7583C15.8089 13.2386 15.1966 14.8967 14.907 16.6345C14.6173 18.3724 14.6563 20.1547 15.0216 21.8761L15.0841 21.8538Z" fill="#3A5DD6"/>
<path d="M21.7103 26.3969C21.2383 27.4009 20.4289 28.177 19.4445 28.5693C18.4601 28.9617 17.3734 28.9414 16.4024 28.5125C14.2625 27.6545 11.9418 27.4501 9.69955 27.922C7.45726 28.3938 5.38185 29.5236 3.70518 31.1848C1.79344 33.0875 0.495958 35.5907 0 38.3333C1.77894 36.0231 4.24117 34.431 6.98004 33.82C8.00901 33.5947 9.06018 33.5075 10.1093 33.5602C11.7548 33.6515 13.4008 33.3891 14.95 32.7886C16.4991 32.1881 17.9202 31.2616 19.1292 30.0639C20.1873 29.0126 21.0655 27.7716 21.7242 26.3969H21.7103Z" fill="#3A5DD6"/>
</g>
</g>
</svg>
