<?xml version="1.0" encoding="utf-8"?><svg viewBox="0 0 64 64" xmlns="http://www.w3.org/2000/svg" xmlns:xlink="http://www.w3.org/1999/xlink"><style>:root>svg{display:none}:root>svg:target{display:block}</style><svg viewBox="0 0 24 24" id="ic-account" xmlns="http://www.w3.org/2000/svg"><path d="M12 3a9.01 9.01 0 00-6.622 15.1 9.01 9.01 0 0013.244 0A9.01 9.01 0 0012 3zm0 16.217a7.208 7.208 0 01-5-2.027 5.406 5.406 0 0110 0 7.208 7.208 0 01-5 2.027zm-1.802-9.01a1.802 1.802 0 113.604 0 1.802 1.802 0 01-3.604 0zm8.027 5.406a7.207 7.207 0 00-3.522-3.045 3.604 3.604 0 10-5.406 0 7.207 7.207 0 00-3.522 3.045 7.135 7.135 0 01-.982-3.604 7.207 7.207 0 0114.415 0 7.135 7.135 0 01-.983 3.604z"/></svg><svg viewBox="0 0 24 24" id="ic-back" xmlns="http://www.w3.org/2000/svg"><path d="M12.707 17.293L8.414 13H18v-2H8.414l4.293-4.293-1.414-1.414L4.586 12l6.707 6.707 1.414-1.414z"/></svg><svg viewBox="0 0 20 20" id="ic-calendar" xmlns="http://www.w3.org/2000/svg"><path d="M5.833 9.166H7.5v1.667H5.833V9.166zm0 3.334H7.5v1.666H5.833V12.5zm3.334-3.334h1.666v1.667H9.167V9.166zm0 3.334h1.666v1.666H9.167V12.5zM12.5 9.166h1.667v1.667H12.5V9.166zm0 3.334h1.667v1.666H12.5V12.5z"/><path d="M4.167 18.333h11.666c.92 0 1.667-.747 1.667-1.666V5c0-.92-.747-1.667-1.667-1.667h-1.666V1.666H12.5v1.667h-5V1.666H5.833v1.667H4.167C3.247 3.333 2.5 4.081 2.5 5v11.666c0 .92.748 1.667 1.667 1.667zM15.833 6.667l.001 10H4.167v-10h11.666z"/></svg><svg viewBox="0 0 20 21" id="ic-comment" xmlns="http://www.w3.org/2000/svg"><path d="M5.833 6.333h8.334V8H5.833V6.333zm0 3.334h5.834v1.666H5.833V9.667z"/><path d="M16.667 2.167H3.333c-.919 0-1.666.747-1.666 1.666v15L6.11 15.5h10.556c.919 0 1.666-.748 1.666-1.667v-10c0-.919-.747-1.666-1.666-1.666zm0 11.666H5.556L3.333 15.5V3.833h13.334v10z"/></svg><svg viewBox="0 0 24 24" id="ic-deposit" xmlns="http://www.w3.org/2000/svg"><path d="M16 12h2v4h-2v-4z"/><path d="M20 7V5c0-1.103-.897-2-2-2H5C3.346 3 2 4.346 2 6v12c0 2.201 1.794 3 3 3h15c1.103 0 2-.897 2-2V9c0-1.103-.897-2-2-2zM5 5h13v2H5a1.001 1.001 0 010-2zm15 14H5.012C4.55 18.988 4 18.805 4 18V8.815c.314.113.647.185 1 .185h15v10z"/></svg><svg viewBox="0 0 20 20" id="ic-download" xmlns="http://www.w3.org/2000/svg"><path d="M10 13.333l3.333-4.166h-2.5V3.333H9.167v5.834h-2.5L10 13.333z"/><path d="M16.667 15H3.333V9.167H1.667V15c0 .92.747 1.667 1.666 1.667h13.334c.919 0 1.666-.748 1.666-1.667V9.167h-1.666V15z"/></svg><svg viewBox="0 0 32 32" id="ic-email" xmlns="http://www.w3.org/2000/svg"><path d="M26.667 5.333H8A2.67 2.67 0 005.333 8v6.667H8v-4l8.533 6.4a1.335 1.335 0 001.6 0l8.534-6.4v12H16v2.666h10.667a2.67 2.67 0 002.666-2.666V8a2.67 2.67 0 00-2.666-2.667zm-9.334 9L8.888 8h16.89l-8.445 6.333z"/><path d="M2.667 16H12v2.667H2.667V16zm2.666 4h8v2.667h-8V20zm4 4h5.334v2.667H9.333V24z"/></svg><svg viewBox="0 0 24 24" id="ic-exit" xmlns="http://www.w3.org/2000/svg"><path d="M19.002 3h-14c-1.103 0-2 .897-2 2v4h2V5h14v14h-14v-4h-2v4c0 1.103.897 2 2 2h14c1.103 0 2-.897 2-2V5c0-1.103-.898-2-2-2z"/><path d="M11 16l5-4-5-4v3.001H3v2h8V16z"/></svg><svg viewBox="0 0 21 21" id="ic-file" xmlns="http://www.w3.org/2000/svg"><path d="M17.086 7.655a.83.83 0 00-.163-.244l-5-5a.831.831 0 00-.245-.164c-.025-.011-.051-.018-.078-.027a.825.825 0 00-.216-.043c-.017-.001-.033-.01-.05-.01H5.5c-.92 0-1.667.747-1.667 1.666v13.334c0 .919.748 1.666 1.667 1.666h10c.92 0 1.667-.747 1.667-1.666V8c0-.018-.01-.033-.011-.052a.795.795 0 00-.043-.216c-.008-.026-.015-.052-.027-.077zm-2.764-.488h-2.155V5.012l2.155 2.155zm-8.822 10V3.833h5V8a.833.833 0 00.833.833H15.5l.002 8.334H5.5z"/><path d="M7.167 10.5h6.666v1.667H7.167V10.5zm0 3.333h6.666V15.5H7.167v-1.667zm0-6.666h1.666v1.666H7.167V7.167z"/></svg><svg viewBox="0 0 20 20" id="ic-filter" xmlns="http://www.w3.org/2000/svg"><path d="M17.5 2.5H4.167a.833.833 0 00-.834.833v2.159c0 .436.178.864.486 1.172l4.514 4.514V17.5a.834.834 0 001.206.746l3.334-1.667a.834.834 0 00.46-.746v-4.655l4.514-4.514c.309-.308.486-.736.486-1.172V3.333A.833.833 0 0017.5 2.5zm-5.59 7.744a.829.829 0 00-.243.59v4.484L10 16.152v-5.319a.83.83 0 00-.244-.589L5 5.492V4.167h11.668l.001 1.319-4.758 4.758z"/></svg><svg viewBox="0 0 24 24" id="ic-history" xmlns="http://www.w3.org/2000/svg"><path d="M12 8v5h5v-2h-3V8h-2z"/><path d="M21.292 8.497a9.004 9.004 0 00-6.478-5.314 9.09 9.09 0 00-3.626 0 8.965 8.965 0 00-4.552 2.453A8.963 8.963 0 004 12l.001.025H2L5 16l3-3.975H6.001L6 12a6.957 6.957 0 011.195-3.913 7.066 7.066 0 011.891-1.892 7.003 7.003 0 0110.772 4.391 7.118 7.118 0 010 2.824 6.937 6.937 0 01-1.054 2.503 7.057 7.057 0 01-3.079 2.537 6.976 6.976 0 01-1.313.408 7.117 7.117 0 01-2.823 0 6.956 6.956 0 01-2.501-1.053 7.066 7.066 0 01-1.037-.855l-1.414 1.414A8.984 8.984 0 0013 21a9.05 9.05 0 003.503-.707 9.009 9.009 0 004.789-11.796z"/></svg><svg viewBox="0 0 20 21" id="ic-info" xmlns="http://www.w3.org/2000/svg"><path d="M10 2.167c-4.595 0-8.333 3.738-8.333 8.333 0 4.595 3.738 8.333 8.333 8.333 4.595 0 8.333-3.738 8.333-8.333 0-4.595-3.738-8.333-8.333-8.333zm0 15A6.674 6.674 0 013.333 10.5 6.674 6.674 0 0110 3.833a6.674 6.674 0 016.667 6.667A6.674 6.674 0 0110 17.167z"/><path d="M9.167 9.667h1.666v5H9.167v-5zm0-3.334h1.666V8H9.167V6.333z"/></svg><svg viewBox="0 0 20 20" id="ic-moon" xmlns="http://www.w3.org/2000/svg"><g clip-path="url(#ma)"><path d="M17.538 14.282c-3.937.75-7.571-2.26-7.571-6.258 0-2.3 1.232-4.407 3.225-5.541 1.01-.575.755-2.104-.391-2.316A10.084 10.084 0 0010.975 0c-5.521 0-10 4.474-10 10 0 5.52 4.474 10 10 10a9.982 9.982 0 007.767-3.703c.736-.907-.067-2.232-1.204-2.015zm-6.563 4.468a8.75 8.75 0 111.599-17.354 7.618 7.618 0 00-3.857 6.628c0 4.79 4.36 8.38 9.055 7.486a8.733 8.733 0 01-6.797 3.24z"/></g><defs><clipPath id="ma"><path d="M0 0h20v20H0z"/></clipPath></defs></svg><svg viewBox="0 0 24 24" id="ic-payouts" xmlns="http://www.w3.org/2000/svg"><path d="M12.006 2.007a9.927 9.927 0 00-7.071 2.922c-3.898 3.899-3.898 10.243 0 14.142a9.931 9.931 0 007.071 2.923 9.93 9.93 0 007.071-2.923c3.898-3.898 3.898-10.242 0-14.142a9.929 9.929 0 00-7.071-2.922zm5.657 15.649a7.946 7.946 0 01-5.657 2.337c-2.14 0-4.15-.83-5.657-2.337-3.118-3.12-3.118-8.194 0-11.313a7.944 7.944 0 015.657-2.336c2.141 0 4.15.829 5.657 2.336 3.118 3.119 3.118 8.194 0 11.313z"/><path d="M11.467 11.125l-3.214 3.214 1.414 1.414 3.214-3.214 2.125 2.124V9H9.343l2.124 2.125z"/></svg><svg viewBox="0 0 24 24" id="ic-phone" xmlns="http://www.w3.org/2000/svg"><g clip-path="url(#oa)"><path d="M13.7 22.338C6.77 20.482 2.666 13.361 4.52 6.441a.672.672 0 01.673-.497l2.984.104a.671.671 0 01.64.576l.487 3.374a.671.671 0 01-.388.707l-1.997.902a10.376 10.376 0 003.506 6.072l1.779-1.278a.671.671 0 01.807.017l2.679 2.108a.671.671 0 01.177.843l-1.401 2.636a.672.672 0 01-.767.334zM10.73 5.492A2.502 2.502 0 0112 7.693a.47.47 0 01-.583.453l-.313-.077a.472.472 0 01-.358-.443 1.252 1.252 0 00-.585-1.013.472.472 0 01-.205-.532l.09-.31a.47.47 0 01.684-.279zM12.054.615a7.51 7.51 0 014.832 8.37.47.47 0 01-.575.375l-.305-.075a.47.47 0 01-.351-.536 6.259 6.259 0 00-4.012-6.95.47.47 0 01-.289-.572l.088-.3a.47.47 0 01.612-.312zm-.678 2.418a5.007 5.007 0 013.077 5.33.471.471 0 01-.578.393l-.306-.075a.468.468 0 01-.355-.514 3.755 3.755 0 00-2.287-3.963.468.468 0 01-.268-.564l.088-.302a.47.47 0 01.63-.305z"/></g><defs><clipPath id="oa"><path d="M0 0h24v24H0z"/></clipPath></defs></svg><svg viewBox="0 0 24 24" id="ic-refresh" xmlns="http://www.w3.org/2000/svg"><path d="M10 11H7.101l.001-.009c.13-.64.386-1.247.752-1.787a5.054 5.054 0 012.2-1.811c.302-.128.617-.226.938-.291a5.078 5.078 0 012.018 0c.957.196 1.835.67 2.525 1.361l1.416-1.412a7.035 7.035 0 00-2.224-1.501 6.921 6.921 0 00-1.315-.408 7.079 7.079 0 00-2.819 0 6.94 6.94 0 00-1.316.409 7.04 7.04 0 00-3.08 2.534 6.978 6.978 0 00-1.054 2.505c-.028.135-.043.273-.063.41H2l4 4 4-4zm4 2h2.899l-.001.008a4.976 4.976 0 01-2.103 3.138 4.943 4.943 0 01-1.787.752 5.073 5.073 0 01-2.017 0 4.956 4.956 0 01-1.787-.752 5.075 5.075 0 01-.74-.61L7.05 16.95a7.033 7.033 0 002.225 1.5 7.037 7.037 0 004.133.408 7.031 7.031 0 004.395-2.945 6.974 6.974 0 001.053-2.503c.027-.135.043-.273.063-.41H22l-4-4-4 4z"/></svg><svg viewBox="0 0 20 21" id="ic-search" xmlns="http://www.w3.org/2000/svg"><path d="M8.333 15.5c1.48 0 2.916-.495 4.081-1.407l3.664 3.664 1.178-1.179-3.664-3.663A6.628 6.628 0 0015 8.833a6.674 6.674 0 00-6.667-6.666 6.674 6.674 0 00-6.666 6.666A6.674 6.674 0 008.333 15.5zm0-11.667c2.758 0 5 2.243 5 5 0 2.758-2.242 5-5 5-2.757 0-5-2.242-5-5 0-2.757 2.243-5 5-5z"/></svg><svg viewBox="0 0 20 20" id="ic-sun" xmlns="http://www.w3.org/2000/svg"><g clip-path="url(#ra)"><path d="M10 15.333a5.333 5.333 0 110-10.666 5.333 5.333 0 010 10.666zM10 14a4 4 0 100-8 4 4 0 000 8zm-.667 4a.667.667 0 111.334 0v1.333a.667.667 0 01-1.334 0V18zm0-17.333a.667.667 0 011.334 0V2a.667.667 0 01-1.334 0V.667zm-3.91 15.928a.667.667 0 111.154.667l-.666 1.154a.667.667 0 01-1.155-.666l.667-1.155zm8.666-15.011a.667.667 0 011.155.666l-.667 1.155a.667.667 0 01-1.154-.667l.666-1.154zM2.74 13.423a.667.667 0 01.666 1.154l-1.155.667a.667.667 0 11-.666-1.155l1.154-.666zm15.01-8.667a.667.667 0 01.667 1.155l-1.154.666a.667.667 0 11-.667-1.154l1.155-.667zM2 9.333a.667.667 0 010 1.334H.667a.667.667 0 010-1.334H2zm17.333 0a.667.667 0 110 1.334H18a.667.667 0 010-1.334h1.333zM3.405 5.423a.667.667 0 01-.667 1.154l-1.154-.666a.667.667 0 11.666-1.155l1.155.667zm15.011 8.666a.667.667 0 01-.666 1.155l-1.155-.667a.667.667 0 01.667-1.154l1.154.666zM6.577 2.74a.667.667 0 11-1.154.666L4.756 2.25a.667.667 0 011.155-.666l.666 1.154zm8.667 15.01a.667.667 0 11-1.155.667l-.666-1.154a.667.667 0 011.154-.667l.667 1.155z"/></g><defs><clipPath id="ra"><path d="M0 0h20v20H0z"/></clipPath></defs></svg><svg viewBox="0 0 24 24" id="ic-support" xmlns="http://www.w3.org/2000/svg"><path d="M12 2C6.486 2 2 6.486 2 12v4.143C2 17.167 2.897 18 4 18h1a1 1 0 001-1v-5.143a1 1 0 00-1-1h-.908C4.648 6.987 7.978 4 12 4s7.352 2.987 7.908 6.857H19a1 1 0 00-1 1V18c0 1.103-.897 2-2 2h-2v-1h-4v3h6c2.206 0 4-1.794 4-4 1.103 0 2-.833 2-1.857V12c0-5.514-4.486-10-10-10z"/></svg><svg viewBox="0 0 20 20" id="ic-swap" xmlns="http://www.w3.org/2000/svg"><path d="M13.681 12.975a.386.386 0 00-.556.006l-2.279 2.383V4.636l2.279 2.382a.39.39 0 00.556.007l.638-.638a.39.39 0 000-.553L10.277 1.78a.39.39 0 00-.554 0L5.677 5.834a.39.39 0 000 .553l.638.638a.386.386 0 00.557-.007L9.15 4.636v10.728l-2.278-2.383a.392.392 0 00-.557-.006l-.638.638a.39.39 0 000 .553l4.046 4.053c.153.152.4.152.554 0l4.046-4.053a.391.391 0 000-.553l-.642-.638z"/></svg><svg viewBox="0 0 32 32" id="ic-telegram" xmlns="http://www.w3.org/2000/svg"><path d="M27.932 7.769l-3.622 17.08c-.273 1.205-.986 1.505-1.998.937l-5.519-4.066-2.663 2.56c-.294.296-.54.542-1.109.542l.397-5.62L23.645 9.96c.445-.397-.096-.616-.69-.22L10.31 17.702l-5.443-1.704c-1.184-.37-1.205-1.184.247-1.752l21.29-8.203c.986-.37 1.85.22 1.528 1.726z"/></svg><svg viewBox="0 0 24 24" id="ic-transfers" xmlns="http://www.w3.org/2000/svg"><path d="M15 12l5-4-5-4v2.999H2v2h13V12zm7 3H9v-3l-5 4 5 4v-3h13v-2z"/></svg><svg viewBox="0 0 24 24" id="ic-trash" xmlns="http://www.w3.org/2000/svg"><path d="M5 20a2 2 0 002 2h10a2 2 0 002-2V8h2V6h-4V4a2 2 0 00-2-2H9a2 2 0 00-2 2v2H3v2h2v12zM9 4h6v2H9V4zM8 8h9v12H7V8h1z"/><path d="M9 10h2v8H9v-8zm4 0h2v8h-2v-8z"/></svg><svg viewBox="0 0 64 64" id="ic-upload" xmlns="http://www.w3.org/2000/svg"><path d="M34.667 50.667V40h8L32 26.667 21.333 40h8v10.667h5.334z"/><path d="M18.667 50.667H24v-5.334h-5.333c-4.411 0-8-3.589-8-8 0-3.744 3.197-7.349 7.128-8.04l1.549-.272.512-1.488c1.875-5.469 6.53-8.866 12.144-8.866 7.352 0 13.333 5.981 13.333 13.333v2.667H48A5.339 5.339 0 0153.333 40 5.339 5.339 0 0148 45.333h-8v5.334h8c5.883 0 10.667-4.784 10.667-10.667a10.692 10.692 0 00-8.15-10.368C49.352 20.453 41.493 13.333 32 13.333c-7.35 0-13.733 4.296-16.648 11.067-5.728 1.712-10.019 7.12-10.019 12.933 0 7.352 5.982 13.334 13.334 13.334z"/></svg><svg viewBox="0 0 32 32" id="ic-whatsapp" xmlns="http://www.w3.org/2000/svg"><path d="M24.405 7.487A11.804 11.804 0 0015.995 4C9.438 4 4.102 9.336 4.102 15.893c0 2.095.546 4.14 1.585 5.946L4 28l6.305-1.655a11.855 11.855 0 005.684 1.446h.006C22.546 27.791 28 22.455 28 15.898c0-3.177-1.35-6.16-3.595-8.41zm-8.41 18.3a9.868 9.868 0 01-5.036-1.376l-.359-.215-3.74.98.997-3.647-.236-.375a9.852 9.852 0 01-1.51-5.261c0-5.448 4.435-9.884 9.889-9.884a9.797 9.797 0 016.986 2.898c1.864 1.87 3.01 4.35 3.005 6.991 0 5.454-4.548 9.89-9.996 9.89zm5.421-7.403c-.295-.15-1.757-.868-2.03-.964-.273-.102-.472-.15-.67.15-.198.3-.766.964-.943 1.168-.171.198-.348.224-.643.075-1.746-.874-2.892-1.56-4.044-3.536-.306-.525.305-.488.873-1.623.096-.199.048-.37-.027-.52-.075-.15-.67-1.613-.916-2.207-.241-.579-.487-.498-.67-.51-.171-.01-.37-.01-.567-.01a1.1 1.1 0 00-.793.37c-.274.3-1.04 1.018-1.04 2.48 0 1.463 1.066 2.877 1.211 3.075.15.198 2.095 3.198 5.079 4.49 1.885.814 2.625.883 3.568.744.573-.086 1.757-.718 2.003-1.414.247-.697.247-1.291.172-1.415-.07-.133-.268-.208-.563-.353z"/></svg><svg viewBox="0 0 24 24" id="ic-x" xmlns="http://www.w3.org/2000/svg"><path d="M16.192 6.344l-4.243 4.242-4.242-4.242-1.414 1.414L10.535 12l-4.242 4.242 1.414 1.414 4.242-4.242 4.243 4.242 1.414-1.414L13.364 12l4.242-4.242-1.414-1.414z"/></svg></svg>